<svg xmlns="http://www.w3.org/2000/svg" width="1200" height="322" viewBox="0 0 1200 322" role="img">
<defs></defs>


<rect width="1200" height="322" rx="28" fill="#EAF2ED"/>
<!-- desk illustration -->
<rect x="56" y="237" width="440" height="18" rx="9" fill="#6D5846"/>
<rect x="83" y="255" width="23" height="55" fill="#6D5846"/>
<rect x="446" y="255" width="23" height="55" fill="#6D5846"/>
<rect x="104" y="79" width="318" height="150" rx="18" fill="#172033"/>
<rect x="123" y="98" width="280" height="112" rx="10" fill="#0E1723"/>
<text x="143" y="130" font-family="JetBrains Mono, monospace" font-size="13.5" fill="#98E8C1">aether@nixos</text>
<text x="143" y="157" font-family="JetBrains Mono, monospace" font-size="13.5" fill="#7BADE2">❯ python -m unittest</text>
<text x="143" y="184" font-family="JetBrains Mono, monospace" font-size="13" fill="#E5EDF5">tests passed</text>
<rect x="242" y="229" width="42" height="12" fill="#243245"/>
<rect x="211" y="241" width="104" height="10" rx="5" fill="#243245"/>
<rect x="374" y="205" width="45" height="39" rx="8" fill="#5049CC"/>
<path d="M419 214 Q443 214 436 233 Q430 243 419 237" fill="none" stroke="#5049CC" stroke-width="7"/>

<!-- info cards -->
<text x="563" y="63" font-family="Inter, Arial, sans-serif" font-size="27" font-weight="800" fill="#172033">A quick snapshot</text>
<text x="563" y="91" font-family="Inter, Arial, sans-serif" font-size="14.5" fill="#5C6877">Grounded in real projects, with plenty still to learn.</text>

<rect x="563" y="115" width="252" height="78" rx="18" fill="#FFFFFF"/>
<text x="585" y="144" font-family="Inter, Arial" font-size="12" fill="#687586">PRIMARY FOCUS</text>
<text x="585" y="174" font-family="Inter, Arial" font-size="20" font-weight="800" fill="#078D70">Linux tooling</text>

<rect x="835" y="115" width="294" height="78" rx="18" fill="#FFFFFF"/>
<text x="857" y="144" font-family="Inter, Arial" font-size="12" fill="#687586">DAILY ENVIRONMENT</text>
<text x="857" y="174" font-family="Inter, Arial" font-size="20" font-weight="800" fill="#5277C3">NixOS + Hyprland</text>

<rect x="563" y="212" width="252" height="78" rx="18" fill="#FFFFFF"/>
<text x="585" y="241" font-family="Inter, Arial" font-size="12" fill="#687586">STRONGEST SKILLS</text>
<text x="585" y="271" font-family="Inter, Arial" font-size="18.5" font-weight="800" fill="#5049CC">Python • Bash • Nix</text>

<rect x="835" y="212" width="294" height="78" rx="18" fill="#FFFFFF"/>
<text x="857" y="241" font-family="Inter, Arial" font-size="12" fill="#687586">CURRENT DIRECTION</text>
<text x="857" y="271" font-family="Inter, Arial" font-size="18.5" font-weight="800" fill="#078D70">Maintainable projects</text>
<rect x="1170" y="28" width="8" height="266" rx="4" fill="#26CEAA" opacity=".55"/>
</svg>