<svg xmlns="http://www.w3.org/2000/svg" width="1200" height="290" viewBox="0 0 1200 290" role="img">
<defs>
<linearGradient id="card" x1="0" y1="0" x2="1" y2="1">
 <stop offset="0" stop-color="#0e1b2f"/><stop offset="1" stop-color="#151638"/>
</linearGradient>
<style>
 .bar { animation: grow 1.4s ease both; transform-origin:left; }
 @keyframes grow { from{transform:scaleX(.05);opacity:.2} to{transform:scaleX(1);opacity:1} }
</style>
</defs>
<rect width="100%" height="100%" rx="24" fill="#0b1020"/>

<rect width="1200" height="290" rx="24" fill="url(#card)"/>
<text x="55" y="35" font-family="JetBrains Mono, monospace" font-size="17" fill="#98E8C1">a quick visual snapshot — not a scientific measurement</text>
<text x="55" y="70" font-family="JetBrains Mono, monospace" font-size="16" fill="#dbeafe">Linux systems</text><rect x="260" y="54" width="775" height="15" rx="7" fill="#1e293b"/><rect class="bar" x="260" y="54" width="728" height="15" rx="7" fill="#26CEAA"/><text x="1060" y="70" font-family="JetBrains Mono, monospace" font-size="14" fill="#94a3b8">94%</text><text x="55" y="123" font-family="JetBrains Mono, monospace" font-size="16" fill="#dbeafe">Python / CLI</text><rect x="260" y="107" width="775" height="15" rx="7" fill="#1e293b"/><rect class="bar" x="260" y="107" width="636" height="15" rx="7" fill="#078D70"/><text x="1060" y="123" font-family="JetBrains Mono, monospace" font-size="14" fill="#94a3b8">82%</text><text x="55" y="176" font-family="JetBrains Mono, monospace" font-size="16" fill="#dbeafe">Nix / flakes</text><rect x="260" y="160" width="775" height="15" rx="7" fill="#1e293b"/><rect class="bar" x="260" y="160" width="604" height="15" rx="7" fill="#7BADE2"/><text x="1060" y="176" font-family="JetBrains Mono, monospace" font-size="14" fill="#94a3b8">78%</text><text x="55" y="229" font-family="JetBrains Mono, monospace" font-size="16" fill="#dbeafe">QML / desktop UI</text><rect x="260" y="213" width="775" height="15" rx="7" fill="#1e293b"/><rect class="bar" x="260" y="213" width="589" height="15" rx="7" fill="#5049CC"/><text x="1060" y="229" font-family="JetBrains Mono, monospace" font-size="14" fill="#94a3b8">76%</text>
<g transform="translate(1110 30)">
<rect x="0" y="0" width="36" height="20" fill="#078D70"/><rect x="0" y="20" width="36" height="20" fill="#26CEAA"/><rect x="0" y="40" width="36" height="20" fill="#98E8C1"/><rect x="0" y="60" width="36" height="20" fill="#FFFFFF"/><rect x="0" y="80" width="36" height="20" fill="#7BADE2"/><rect x="0" y="100" width="36" height="20" fill="#5049CC"/><rect x="0" y="120" width="36" height="20" fill="#3D1A78"/>
</g>

</svg>