<svg xmlns="http://www.w3.org/2000/svg" width="1200" height="220" viewBox="0 0 1200 220" role="img">
<defs></defs>


<rect width="1200" height="220" rx="28" fill="#F4F1EA"/>
<text x="600" y="67" text-anchor="middle" font-family="Inter, Arial, sans-serif" font-size="31" font-weight="800" fill="#172033">Thanks for stopping by.</text>
<text x="600" y="105" text-anchor="middle" font-family="Inter, Arial, sans-serif" font-size="17" fill="#55616F">Build useful things. Document them well. Make them look intentional.</text>
<path d="M0 150 C205 108 364 192 580 150 S958 122 1200 166 V220 H0Z" fill="#98E8C1"/>
<path d="M0 181 C233 148 400 221 660 179 S1000 160 1200 195 V220 H0Z" fill="#7BADE2" opacity=".78"/>
<rect x="0.00" y="211" width="172.43" height="9" fill="#078D70"/><rect x="171.43" y="211" width="172.43" height="9" fill="#26CEAA"/><rect x="342.86" y="211" width="172.43" height="9" fill="#98E8C1"/><rect x="514.29" y="211" width="172.43" height="9" fill="#FFFFFF"/><rect x="685.71" y="211" width="172.43" height="9" fill="#7BADE2"/><rect x="857.14" y="211" width="172.43" height="9" fill="#5049CC"/><rect x="1028.57" y="211" width="172.43" height="9" fill="#3D1A78"/>
</svg>