<svg xmlns="http://www.w3.org/2000/svg" width="1200" height="316" viewBox="0 0 1200 316" role="img">
<defs></defs>


<rect width="1200" height="316" rx="28" fill="#141A23"/>
<text x="55" y="53" font-family="Inter, Arial, sans-serif" font-size="25" font-weight="800" fill="#F0F6FC">Practical experience</text>
<text x="55" y="81" font-family="Inter, Arial, sans-serif" font-size="14.5" fill="#A8B3C2">A concise overview of the areas I work in most often.</text>

<rect x="55" y="112" width="1090" height="29" rx="14.5" fill="#1D2633"/>
<rect x="55" y="112" width="145" height="29" rx="14.5" fill="#26CEAA"/>
<text x="127" y="132" text-anchor="middle" font-family="JetBrains Mono, monospace" font-size="12.5" font-weight="700" fill="#FFFFFF">Systems</text>
<text x="222" y="132" font-family="Inter, Arial, sans-serif" font-size="13.2" fill="#D7E0E8">NixOS, Arch Linux, flakes, systemd, packages</text>

<rect x="55" y="150" width="1090" height="29" rx="14.5" fill="#1D2633"/>
<rect x="55" y="150" width="145" height="29" rx="14.5" fill="#7BADE2"/>
<text x="127" y="170" text-anchor="middle" font-family="JetBrains Mono, monospace" font-size="12.5" font-weight="700" fill="#FFFFFF">Desktop</text>
<text x="222" y="170" font-family="Inter, Arial, sans-serif" font-size="13.2" fill="#D7E0E8">Hyprland, Wayland, Quickshell, QML, Qt</text>

<rect x="55" y="188" width="1090" height="29" rx="14.5" fill="#1D2633"/>
<rect x="55" y="188" width="145" height="29" rx="14.5" fill="#078D70"/>
<text x="127" y="208" text-anchor="middle" font-family="JetBrains Mono, monospace" font-size="12.5" font-weight="700" fill="#FFFFFF">Automation</text>
<text x="222" y="208" font-family="Inter, Arial, sans-serif" font-size="13.2" fill="#D7E0E8">Python CLIs, Bash scripts, repair workflows</text>

<rect x="55" y="226" width="1090" height="29" rx="14.5" fill="#1D2633"/>
<rect x="55" y="226" width="145" height="29" rx="14.5" fill="#5049CC"/>
<text x="127" y="246" text-anchor="middle" font-family="JetBrains Mono, monospace" font-size="12.5" font-weight="700" fill="#FFFFFF">Hardware</text>
<text x="222" y="246" font-family="Inter, Arial, sans-serif" font-size="13.2" fill="#D7E0E8">NVIDIA, PipeWire, Bluetooth, multi-monitor</text>

<rect x="55" y="264" width="1090" height="29" rx="14.5" fill="#1D2633"/>
<rect x="55" y="264" width="145" height="29" rx="14.5" fill="#3D1A78"/>
<text x="127" y="284" text-anchor="middle" font-family="JetBrains Mono, monospace" font-size="12.5" font-weight="700" fill="#FFFFFF">Gaming</text>
<text x="222" y="284" font-family="Inter, Arial, sans-serif" font-size="13.2" fill="#D7E0E8">Steam, Proton, GameMode, MangoHud</text>

</svg>